<svg xmlns="http://www.w3.org/2000/svg" width="640" height="460" viewBox="0 0 640 460">
<rect width="100%" height="100%" fill="white"/>
<text x="320" y="28" text-anchor="middle" font-family="Arial" font-size="20">Waypoint Error and Injected VIO Dropout</text>
<rect x="256.9" y="80" width="59.1" height="320" fill="#d62728" opacity="0.15"/>
<line x1="60" y1="400" x2="560" y2="400" stroke="black"/><line x1="60" y1="80" x2="60" y2="400" stroke="black"/>
<polyline points="60.0,200.0 69.8,250.0 79.7,298.4 89.5,333.1 99.4,355.9 109.2,370.9 119.1,380.8 128.9,387.4 138.7,129.8 148.6,179.8 158.4,229.8 168.3,279.8 178.1,320.8 188.0,347.8 197.8,365.6 207.6,377.3 217.5,385.0 227.3,109.8 237.2,159.8 247.0,209.8 256.9,259.8 266.7,269.8 276.5,269.8 286.4,269.8 296.2,269.8 306.1,269.8 315.9,269.8 325.7,306.4 335.6,338.3 345.4,359.3 355.3,373.2 365.1,382.3 375.0,388.4 384.8,140.2 394.6,190.2 404.5,240.2 414.3,289.8 424.2,327.4 434.0,352.1 443.9,368.5 453.7,379.2 463.5,386.3 473.4,120.2 483.2,170.2 493.1,220.2 502.9,270.2 512.8,314.2 522.6,343.4 532.4,362.7 542.3,375.4 552.1,383.8" fill="none" stroke="#1f77b4" stroke-width="3"/>
<text x="310" y="445" text-anchor="middle" font-family="Arial" font-size="15">Time [s]</text>
<text x="18" y="240" text-anchor="middle" transform="rotate(-90 18 240)" font-family="Arial" font-size="15">Waypoint error [m]</text>
<text x="286.4" y="100" text-anchor="middle" font-family="Arial" font-size="12" fill="#d62728">3 s VIO dropout</text>
</svg>